<svg t="1596181826635" class="icon" viewBox="0 0 1024 1024" version="1.1" xmlns="http://www.w3.org/2000/svg" p-id="3614"><path d="M329.142857 219.428571h-292.571428a36.571429 36.571429 0 0 1 0-73.142857h292.571428a36.571429 36.571429 0 0 1 0 73.142857zM329.142857 950.857143h-292.571428a36.571429 36.571429 0 0 1 0-73.142857h292.571428a36.571429 36.571429 0 0 1 0 73.142857zM987.428571 219.428571h-292.571428a36.571429 36.571429 0 0 1 0-73.142857h292.571428a36.571429 36.571429 0 0 1 0 73.142857zM987.428571 950.857143h-292.571428a36.571429 36.571429 0 0 1 0-73.142857h292.571428a36.571429 36.571429 0 0 1 0 73.142857z" p-id="3615"></path><path d="M438.857143 365.714286a146.285714 146.285714 0 1 1 146.285714-146.285715 146.285714 146.285714 0 0 1-146.285714 146.285715z m0-219.428572a73.142857 73.142857 0 1 0 73.142857 73.142857 73.142857 73.142857 0 0 0-73.142857-73.142857zM438.857143 1024a146.285714 146.285714 0 1 1 146.285714-146.285714 146.285714 146.285714 0 0 1-146.285714 146.285714z m0-219.428571a73.142857 73.142857 0 1 0 73.142857 73.142857 73.142857 73.142857 0 0 0-73.142857-73.142857zM475.428571 585.142857h-438.857142a36.571429 36.571429 0 0 1 0-73.142857h438.857142a36.571429 36.571429 0 0 1 0 73.142857zM987.428571 585.142857h-146.285714a36.571429 36.571429 0 0 1 0-73.142857h146.285714a36.571429 36.571429 0 0 1 0 73.142857z"  p-id="3616"></path><path d="M731.428571 731.428571a146.285714 146.285714 0 1 1 146.285715-146.285714 146.285714 146.285714 0 0 1-146.285715 146.285714z m0-219.428571a73.142857 73.142857 0 1 0 73.142858 73.142857 73.142857 73.142857 0 0 0-73.142858-73.142857z"  p-id="3617"></path></svg>