<svg t="1589599050248" class="icon" viewBox="0 0 1045 1024" version="1.1" xmlns="http://www.w3.org/2000/svg" p-id="2003" width="200" height="200"><path d="M424 301.994667c-98.090667 0-190.784-11.626667-261.034667-32.725334-36.394667-10.922667-65.536-24.085333-86.677333-39.082666-19.818667-14.08-43.413333-37.909333-43.413333-71.616 0-33.706667 23.594667-57.557333 43.413333-71.616 21.12-14.997333 50.282667-28.16 86.677333-39.082667C233.216 26.752 325.930667 15.146667 424 15.146667c98.112 0 190.805333 11.626667 261.034667 32.725333 36.394667 10.922667 65.557333 24.085333 86.698666 39.082667 19.797333 14.08 43.413333 37.909333 43.413334 71.616 0 33.706667-23.616 57.536-43.413334 71.616-21.141333 14.997333-50.304 28.16-86.698666 39.082666-70.229333 21.12-162.922667 32.725333-261.034667 32.725334zM107.370667 158.592c1.408 2.261333 6.08 8.256 19.946666 16.405333 16.426667 9.642667 40.042667 18.837333 68.266667 26.538667 62.186667 17.002667 143.317333 26.346667 228.416 26.346667 85.12 0 166.250667-9.344 228.437333-26.346667 28.224-7.701333 51.84-16.896 68.266667-26.538667 13.845333-8.149333 18.538667-14.144 19.925333-16.426666-1.386667-2.261333-6.08-8.256-19.925333-16.405334-16.448-9.642667-40.042667-18.837333-68.266667-26.538666-62.186667-17.002667-143.317333-26.346667-228.437333-26.346667s-166.250667 9.344-228.416 26.346667c-28.224 7.701333-51.84 16.896-68.266667 26.538666-13.845333 8.128-18.538667 14.144-19.946666 16.426667z m316.629333 383.04c-98.304 0-191.232-12.394667-261.653333-34.901333-36.501333-11.669333-65.770667-25.706667-86.954667-41.728-19.413333-14.656-42.538667-39.338667-42.538667-73.6h74.112c0.234667 3.413333 15.232 25.130667 80.469334 45.546666 63.082667 19.712 147.093333 30.592 236.565333 30.592 89.472 0 173.482667-10.88 236.544-30.592 65.237333-20.416 80.234667-42.133333 80.490667-45.568h74.090666c0 34.282667-23.125333 58.965333-42.538666 73.621334-21.162667 16-50.410667 30.037333-86.933334 41.728-70.4 22.506667-163.328 34.901333-261.653333 34.901333zM70.016 412.053333c-20.48 0-37.056-16.597333-37.056-37.056V151.210667a37.056 37.056 0 0 1 74.112 0v223.786666c0 20.48-16.597333 37.056-37.056 37.056z m707.52 0c-20.458667 0-37.056-16.597333-37.056-37.056V151.210667a37.056 37.056 0 0 1 74.112 0v223.786666c0 20.48-16.597333 37.056-37.056 37.056z m-707.52 113.066667c-20.48 0-37.056-16.597333-37.056-37.056v-223.786667a37.056 37.056 0 0 1 74.112 0v223.786667c0 20.48-16.597333 37.056-37.056 37.056z m707.52 47.018667c-20.458667 0-37.056-16.576-37.056-37.034667V264.277333a37.056 37.056 0 0 1 74.112 0v270.826667c0 20.458667-16.597333 37.034667-37.056 37.034667zM70.016 677.973333c-20.48 0-37.056-16.576-37.056-37.034666v-223.786667a37.056 37.056 0 0 1 74.112 0v223.786667c0 20.458667-16.597333 37.056-37.056 37.056z m353.429333 102.186667c-98.24 0-191.082667-12.394667-261.461333-34.901333-36.48-11.669333-65.728-25.706667-86.890667-41.728-19.413333-14.677333-42.517333-39.338667-42.517333-73.6a37.056 37.056 0 0 1 74.112 0c0.064 1.109333 2.773333 7.04 14.656 15.637333 14.741333 10.688 37.397333 21.013333 65.536 29.845333 63.018667 19.754667 147.050667 30.656 236.586667 30.656 28.266667 0 56.384-1.109333 83.52-3.285333a37.056 37.056 0 0 1 5.930666 73.856c-29.098667 2.346667-59.2 3.52-89.472 3.52zM70.016 905.429333c-20.48 0-37.056-16.597333-37.056-37.056v-223.786666a37.056 37.056 0 0 1 74.112 0v223.786666c0 20.458667-16.597333 37.056-37.056 37.056z m353.429333 102.186667c-98.24 0-191.082667-12.416-261.461333-34.922667-36.48-11.669333-65.728-25.706667-86.890667-41.728-19.413333-14.677333-42.517333-39.338667-42.517333-73.6a37.056 37.056 0 0 1 74.112 0c0.064 1.109333 2.773333 7.04 14.656 15.637334 14.741333 10.709333 37.397333 21.013333 65.536 29.845333 63.018667 19.754667 147.050667 30.656 236.586667 30.656 33.642667 0 66.858667-1.557333 98.730666-4.629333a37.056 37.056 0 1 1 7.125334 73.749333 1108.053333 1108.053333 0 0 1-105.877334 4.970667zM718.698667 595.946667c6.762667-2.538667 14.293333 1.066667 16.554666 7.893333a64.149333 64.149333 0 0 0 60.8 43.861333c28.224 0 52.245333-18.346667 60.736-43.776a12.757333 12.757333 0 0 1 16.576-7.893333c22.912 8.533333 44.032 20.757333 62.634667 35.925333 5.568 4.565333 6.378667 12.885333 1.578667 18.261334a63.957333 63.957333 0 0 0-3.989334 80.512c15.68 21.376 47.893333 24.32 65.984 22.869333a12.736 12.736 0 0 1 13.696 11.648c1.664 20.138667 1.856 52.992 0.576 73.344a12.8 12.8 0 0 1-14.101333 11.84c-20.544-1.984-53.312 4.138667-65.002667 21.738667-18.325333 27.562667-16.298667 61.866667 4.373334 83.626666a12.757333 12.757333 0 0 1-1.237334 18.517334 221.76 221.76 0 0 1-63.509333 37.098666 12.778667 12.778667 0 0 1-16.789333-8.426666 64.149333 64.149333 0 0 0-61.525334-46.293334c-29.184 0-53.866667 19.626667-61.546666 46.378667a12.778667 12.778667 0 0 1-16.789334 8.448 221.525333 221.525333 0 0 1-64.213333-37.546667l-1.621333-1.642666a12.693333 12.693333 0 0 1 0-16.384c13.013333-15.189333 27.370667-45.397333 8.896-78.933334-14.976-27.157333-47.722667-30.485333-68.138667-27.2a12.714667 12.714667 0 0 1-14.72-11.818666c-1.237333-20.202667-1.066667-52.138667 0.554667-72.149334a12.757333 12.757333 0 0 1 14.293333-11.669333c19.114667 2.410667 53.717333-0.021333 71.936-33.856 11.072-20.565333-0.448-53.632-12.096-70.336a12.842667 12.842667 0 0 1 2.346667-17.301333l6.378666-5.077334a221.226667 221.226667 0 0 1 57.365334-31.658666z m77.184 132.096a75.690667 75.690667 0 1 0 0 151.381333 75.690667 75.690667 0 0 0 0-151.381333z" p-id="2004"></path></svg>