<svg t="1589629086486" class="icon" viewBox="0 0 1024 1024" version="1.1" xmlns="http://www.w3.org/2000/svg" p-id="2678" width="128" height="128"><path d="M832 378.24a128 128 0 0 0-128 114.56H351.36l174.72-192a128 128 0 1 0 39.68-233.6 128 128 0 0 0-90.88 94.72 132.48 132.48 0 0 0 8.32 88.96L300.16 432A128 128 0 0 0 147.84 384a128 128 0 0 0-75.52 78.08A131.84 131.84 0 0 0 192 640a128 128 0 0 0 108.8-53.76L485.12 768a122.24 122.24 0 0 0-14.08 59.52 128 128 0 0 0 77.44 120.32 131.84 131.84 0 0 0 179.2-152.96 128 128 0 0 0-198.4-78.08L353.28 545.28H704a128 128 0 1 0 128-166.4z" p-id="2679"></path></svg>