<svg t="1589629139315" class="icon" viewBox="0 0 1024 1024" version="1.1" xmlns="http://www.w3.org/2000/svg" p-id="3653" width="128" height="128"><path d="M928 620.8c-22.4-25.6-44.8-48-70.4-64-25.6-16-54.4-28.8-83.2-35.2-28.8-6.4-57.6-12.8-80-12.8-22.4-3.2-51.2-3.2-83.2-3.2v121.6L368 416l243.2-211.2v121.6c54.4 0 99.2 6.4 137.6 19.2 38.4 12.8 70.4 32 96 57.6 25.6 25.6 44.8 57.6 60.8 89.6 16 35.2 28.8 76.8 38.4 128 0 3.2-3.2 6.4-6.4 9.6l-9.6-9.6z" fill="" p-id="3654"></path><path d="M768 630.4V832H192V384h118.4l76.8-64H192c-35.2 0-64 28.8-64 64v448c0 35.2 28.8 64 64 64h576c35.2 0 64-28.8 64-64v-256l-64 54.4z" fill="" p-id="3655"></path></svg>