<svg t="1589599277108" class="icon" viewBox="0 0 1025 1024" version="1.1" xmlns="http://www.w3.org/2000/svg" p-id="2512" width="128" height="128"><path d="M752.798 666.402c-55.516 0-100.687 45.18-100.687 100.696 0 55.534 45.17 100.715 100.687 100.715 55.526 0 100.697-45.181 100.697-100.715 0-55.515-45.171-100.696-100.697-100.696z m0 149.518c-26.916 0-48.811-21.896-48.811-48.821 0-26.908 21.894-48.803 48.811-48.803s48.821 21.895 48.821 48.803c0.001 26.924-21.904 48.82-48.82 48.82z m266.238-101.43c-3.777-19.937-16.573-32.833-32.999-32.833h-2.277c-31.434 0-57.016-25.571-57.016-56.996 0-8.25 3.603-18.384 4.975-21.565 7.783-17.523 1.793-39.035-15.502-51.016l-66.663-36.914c-5.223-2.25-10.866-3.402-16.783-3.402-12.072 0-24.008 4.92-31.91 13.114-8.304 8.561-30.365 26.23-45.556 26.23-15.337 0-37.534-18.017-45.848-26.705-7.947-8.396-19.984-13.408-32.193-13.408-5.853 0-11.414 1.117-16.408 3.275l-1.243 0.512-67.844 37.261-1.61 1.043c-15.777 10.975-21.794 32.467-14.066 49.845 0.522 1.243 5.049 12.274 5.049 21.73 0 31.425-25.58 56.996-57.025 56.996h-2.652c-16.034 0-28.838 12.897-32.615 32.852-0.576 3.073-5.625 30.639-5.625 52.937 0 22.297 5.049 49.863 5.625 52.955 3.777 19.94 16.572 32.834 33.008 32.834h2.258c31.443 0 57.025 25.571 57.025 56.997 0 8.25-3.603 18.383-4.976 21.566-7.774 17.505-1.802 38.997 15.43 51.015l65.41 36.437c5.214 2.268 10.857 3.44 16.784 3.44 12.301 0 24.356-5.14 32.24-13.738 8.047-8.743 30.93-27.895 46.552-27.895 15.786 0 38.403 19.189 46.864 28.462 7.93 8.743 20.067 13.956 32.467 13.956 5.826 0 11.377-1.116 18.127-4.097l66.134-36.548 1.583-1.042c15.749-10.957 21.758-32.432 14.039-49.827-0.522-1.245-5.049-12.274-5.049-21.731 0-31.425 25.58-56.997 57.016-56.997h2.624c16.061 0 28.874-12.896 32.633-32.779 0.054-0.274 5.643-29.56 5.643-53.01 0-22.295-5.05-49.86-5.626-52.953z m-49.553 87.783c-53.704 7.023-94.614 52.883-94.614 107.958 0 12.712 3.065 24.785 5.77 32.962l-47.722 26.376c-4.29-4.206-11.14-10.5-19.627-16.792-21.09-15.658-41.522-23.614-60.71-23.614-19.024 0-39.292 7.81-60.254 23.175a191.346 191.346 0 0 0-19.5 16.463l-45.62-25.517c2.709-8.195 5.8-20.34 5.8-33.053 0-55.075-40.9-100.935-94.605-107.958-1.37-8.89-3.3-23.376-3.3-34.827 0-11.505 1.92-25.956 3.3-34.827 53.696-7.024 94.605-52.883 94.605-107.958 0-12.676-3.065-24.75-5.762-32.926l49.259-27.035c4.27 4.024 11.13 10.079 19.554 16.078 20.679 14.744 40.617 22.226 59.247 22.226 18.438 0 38.213-7.335 58.753-21.804 8.36-5.872 15.128-11.743 19.436-15.749l47.165 26.212c-2.707 8.177-5.79 20.286-5.79 33 0 55.077 40.901 100.934 94.605 107.958 1.4 9.054 3.312 23.468 3.312 34.827 0 11.43-1.902 25.808-3.302 34.825zM69.887 949.714v-57.028c0-193.892 149.522-353.693 340.022-371.7l-0.081-0.038 0.496 0.006c11.678-1.09 23.492-1.71 35.453-1.71 1.8 0 3.576 0.098 5.371 0.125 42.128-3.273 105.874-13.171 139.197-42.91l16.302-12.708c63.693-49.74 100.23-124.051 100.23-203.864C706.876 116.871 589.73 0.522 445.725 0.522s-261.15 116.35-261.15 259.366c0 79.813 36.537 154.122 100.23 203.864l16.3 12.708-19.206 7.626C112.217 551.458 2.574 711.836 2.574 892.686v90.395c0 18.4 15.09 33.375 33.649 33.375h491.72c-16.004-20.505-29.652-42.865-40.68-66.74l-417.376-0.002z m182.002-689.827c0-106.222 86.95-192.634 193.837-192.634 106.887 0 193.855 86.412 193.855 192.634 0 106.223-86.968 192.634-193.855 192.634s-193.837-86.41-193.837-192.634z" fill="" p-id="2513"></path></svg>